<svg xmlns="http://www.w3.org/2000/svg" xmlns:xlink="http://www.w3.org/1999/xlink" version="1.1" width="256" height="256" viewBox="0 0 256 256" xml:space="preserve">

<defs>
</defs>
<g style="stroke: none; stroke-width: 0; stroke-dasharray: none; stroke-linecap: butt; stroke-linejoin: miter; stroke-miterlimit: 10; fill: none; fill-rule: nonzero; opacity: 1;" transform="translate(1.4065934065934016 1.4065934065934016) scale(2.81 2.81)" >
	<path d="M 45.074 90.002 c -3.908 0 -7.841 -0.514 -11.716 -1.552 C 21.752 85.34 12.051 77.897 6.044 67.492 C 0.036 57.086 -1.56 44.964 1.55 33.358 C 7.969 9.4 32.684 -4.868 56.643 1.55 c 8.707 2.333 16.42 7.151 22.306 13.933 c 1.448 1.668 1.269 4.194 -0.398 5.642 c -1.668 1.449 -4.195 1.268 -5.642 -0.399 c -4.837 -5.572 -11.177 -9.531 -18.336 -11.45 C 34.87 3.995 14.555 15.73 9.276 35.428 c -2.557 9.542 -1.244 19.509 3.695 28.065 c 4.94 8.555 12.915 14.674 22.457 17.232 c 9.543 2.556 19.509 1.244 28.065 -3.695 c 8.555 -4.94 14.674 -12.915 17.232 -22.456 c 1.386 -5.171 1.642 -10.445 0.764 -15.677 c -0.366 -2.178 1.102 -4.241 3.281 -4.607 c 2.175 -0.364 4.241 1.102 4.607 3.282 c 1.071 6.37 0.76 12.787 -0.926 19.072 C 85.34 68.248 77.897 77.949 67.492 83.956 C 60.561 87.958 52.868 90.002 45.074 90.002 z" style="stroke: none; stroke-width: 1; stroke-dasharray: none; stroke-linecap: butt; stroke-linejoin: miter; stroke-miterlimit: 10; fill: rgb(0,0,0); fill-rule: nonzero; opacity: 1;" transform=" matrix(1 0 0 1 0 0) " stroke-linecap="round" />
	<path d="M 75.929 22.104 H 64.673 c -2.209 0 -3.999 -1.791 -3.999 -3.999 s 1.791 -3.999 3.999 -3.999 h 7.257 V 6.848 c 0 -2.209 1.791 -3.999 3.999 -3.999 c 2.209 0 3.999 1.791 3.999 3.999 v 11.256 C 79.928 20.313 78.137 22.104 75.929 22.104 z" style="stroke: none; stroke-width: 1; stroke-dasharray: none; stroke-linecap: butt; stroke-linejoin: miter; stroke-miterlimit: 10; fill: rgb(0,0,0); fill-rule: nonzero; opacity: 1;" transform=" matrix(1 0 0 1 0 0) " stroke-linecap="round" />
</g>
</svg>